<svg id="Layer_1" data-name="Layer 1" xmlns="http://www.w3.org/2000/svg" viewBox="0 0 132.3 67.58"><defs><style>.cls-1{fill:#fff;}</style></defs><path class="cls-1" d="M135.9,175.69q-.14,32.92-.28,65.86l30.1.14V228.51H145.78l.06-13.63H162.9l-.23-14H145.78V188.62l19.76.18V175.69H135.9" transform="translate(-135.62 -175.69)"/><path class="cls-1" d="M173.17,175.69q-.13,32.92-.28,65.86l30.1.14V228.51H183.05l.06-13.63h17.06l-.23-14H183.05V188.62l19.76.18V175.69H173.17" transform="translate(-135.62 -175.69)"/><path class="cls-1" d="M206.49,175.69l10.44.28L229.69,214q6.21-19,12.43-38l10.91-.32q-11.75,33.8-23.5,67.58l-23-67.58" transform="translate(-135.62 -175.69)"/><path class="cls-1" d="M267.91,175.69v66H258v-66h9.94" transform="translate(-135.62 -175.69)"/></svg>